<svg width="564" height="106" viewBox="0 0 564 106" fill="none" xmlns="http://www.w3.org/2000/svg">
<g filter="url(#filter0_b)">
<rect y="14" width="542" height="92" rx="30" fill="#1AA2EF" fill-opacity="0.9"/>
</g>
<path d="M101.523 79.0585C101.414 78.8253 101.312 78.6319 101.218 78.4767C99.6563 75.6837 96.6724 72.2551 92.2676 68.1905L92.1745 68.0974L92.1281 68.0518L92.081 68.005H92.0336C90.0346 66.1123 88.7687 64.8397 88.2387 64.1881C87.2685 62.9469 87.0514 61.6906 87.5814 60.4177C87.9559 59.4559 89.3627 57.4248 91.7989 54.3216C93.08 52.677 94.095 51.3588 94.8444 50.3658C100.249 43.2292 102.592 38.6688 101.873 36.6829L101.594 36.2187C101.407 35.9393 100.923 35.6837 100.143 35.4506C99.3607 35.218 98.3613 35.1796 97.1425 35.3346L83.6473 35.4272C83.4289 35.3502 83.1167 35.3574 82.7099 35.4506C82.3039 35.5439 82.1007 35.5907 82.1007 35.5907L81.8657 35.7072L81.6791 35.8472C81.523 35.9398 81.3513 36.1027 81.1637 36.3355C80.9771 36.5674 80.821 36.8396 80.696 37.1499C79.227 40.9042 77.5564 44.3947 75.6816 47.6213C74.5258 49.5453 73.4642 51.2128 72.4946 52.6246C71.5264 54.036 70.7143 55.0758 70.0587 55.7423C69.4021 56.4096 68.8098 56.9441 68.2774 57.3479C67.7464 57.7518 67.3407 57.9225 67.06 57.86C66.7786 57.7976 66.5134 57.7356 66.2624 57.6737C65.8252 57.3943 65.4739 57.0143 65.2087 56.5335C64.9425 56.0526 64.7632 55.4473 64.6694 54.7182C64.5763 53.9885 64.5213 53.3609 64.5054 52.8333C64.4908 52.3063 64.4974 51.5608 64.5292 50.599C64.5618 49.6368 64.5763 48.9857 64.5763 48.6444C64.5763 47.4652 64.5995 46.1854 64.6459 44.8047C64.6933 43.424 64.7314 42.33 64.7636 41.5241C64.7954 40.7174 64.81 39.8638 64.81 38.964C64.81 38.0642 64.7549 37.3585 64.6459 36.8463C64.5382 36.3348 64.3731 35.8383 64.1551 35.3569C63.9359 34.876 63.6154 34.504 63.1945 34.24C62.7729 33.9762 62.2488 33.7669 61.625 33.6114C59.969 33.2392 57.8606 33.0379 55.2983 33.0066C49.4881 32.9447 45.7547 33.3173 44.099 34.1241C43.443 34.4649 42.8493 34.9306 42.3185 35.5198C41.7561 36.2026 41.6776 36.5753 42.0837 36.6365C43.9583 36.9155 45.2854 37.5826 46.0665 38.6375L46.348 39.1965C46.5669 39.5998 46.7854 40.3137 47.0045 41.3374C47.2229 42.3612 47.3638 43.4936 47.4258 44.7341C47.5819 46.9995 47.5819 48.9386 47.4258 50.5518C47.2693 52.1656 47.1218 53.4219 46.9806 54.3217C46.8397 55.2215 46.6289 55.9507 46.348 56.509C46.0665 57.0675 45.8792 57.4088 45.7854 57.5327C45.6917 57.6566 45.6135 57.7347 45.5515 57.7653C45.1454 57.9199 44.7231 57.9986 44.2861 57.9986C43.8484 57.9986 43.3176 57.7811 42.6929 57.3466C42.0684 56.912 41.4203 56.315 40.7485 55.5547C40.0767 54.7943 39.3191 53.7316 38.4754 52.3666C37.6322 51.0015 36.7574 49.3882 35.8515 47.5266L35.1019 46.1766C34.6333 45.308 33.9932 44.0434 33.181 42.3838C32.3682 40.7235 31.6498 39.1176 31.0253 37.5662C30.7757 36.9146 30.4007 36.4186 29.9009 36.0773L29.6664 35.9372C29.5105 35.8133 29.2601 35.6818 28.9168 35.5416C28.573 35.4016 28.2142 35.3012 27.839 35.2394L14.9996 35.332C13.6875 35.332 12.7973 35.6272 12.3286 36.2168L12.141 36.4957C12.0473 36.6511 12 36.8992 12 37.2406C12 37.582 12.0937 38.0009 12.2813 38.497C14.1556 42.8722 16.1939 47.0917 18.3962 51.1562C20.5984 55.2207 22.5121 58.4948 24.1361 60.9755C25.7605 63.458 27.4162 65.8009 29.1033 68.0032C30.7903 70.2063 31.907 71.6183 32.4534 72.2383C33.0004 72.8598 33.4301 73.3242 33.7425 73.6346L34.9142 74.7515C35.6639 75.4961 36.7648 76.3882 38.2175 77.4272C39.6705 78.4672 41.2791 79.4909 43.0441 80.4999C44.8095 81.5075 46.8633 82.3297 49.2064 82.9658C51.5492 83.6022 53.8296 83.8579 56.0478 83.7344H61.4367C62.5299 83.6408 63.3579 83.2995 63.9204 82.7104L64.1069 82.4769C64.2322 82.2918 64.3496 82.0041 64.4579 81.6172C64.5677 81.2292 64.622 80.8019 64.622 80.3371C64.5902 79.0034 64.6923 77.8013 64.9259 76.7307C65.1596 75.6608 65.4258 74.8542 65.7235 74.3107C66.0212 73.7679 66.3569 73.31 66.7308 72.9384C67.1053 72.5665 67.3722 72.341 67.5287 72.2634C67.6841 72.1851 67.8084 72.1323 67.9022 72.1006C68.6519 71.8525 69.5343 72.0926 70.5506 72.8226C71.5659 73.5515 72.5185 74.4521 73.4091 75.522C74.2998 76.593 75.3694 77.7944 76.6187 79.1284C77.869 80.4628 78.9621 81.4547 79.8988 82.1072L80.8355 82.6656C81.4614 83.0383 82.2734 83.3796 83.2735 83.69C84.2714 84 85.1458 84.0776 85.8966 83.9224L97.8923 83.7366C99.0789 83.7366 100.002 83.5417 100.657 83.1545C101.313 82.7665 101.703 82.3392 101.828 81.8747C101.954 81.4092 101.961 80.8817 101.852 80.2916C101.741 79.7029 101.632 79.2912 101.523 79.0585Z" fill="white" fill-opacity="0.9"/>
<path d="M157.408 35.457H171.818C178.503 35.457 183.329 36.431 186.295 38.3789C189.283 40.3268 190.777 43.4036 190.777 47.6094C190.777 50.4427 190.047 52.8001 188.586 54.6816C187.125 56.5632 185.022 57.7474 182.277 58.2344V58.5664C185.686 59.2083 188.188 60.4811 189.781 62.3848C191.397 64.2663 192.205 66.8229 192.205 70.0547C192.205 74.4154 190.678 77.8353 187.623 80.3145C184.59 82.7715 180.363 84 174.939 84H157.408V35.457ZM165.344 55.5117H172.98C176.301 55.5117 178.725 54.9915 180.252 53.9512C181.779 52.8887 182.543 51.0957 182.543 48.5723C182.543 46.2923 181.713 44.6432 180.053 43.625C178.415 42.6068 175.803 42.0977 172.217 42.0977H165.344V55.5117ZM165.344 61.9531V77.3262H173.777C177.098 77.3262 179.599 76.6953 181.281 75.4336C182.986 74.1497 183.838 72.1354 183.838 69.3906C183.838 66.8672 182.975 64.9967 181.248 63.7793C179.521 62.5618 176.898 61.9531 173.379 61.9531H165.344ZM224.246 47.2773H232.812L217.639 64.9746L234.107 84H225.143L209.271 65.373V84H201.469V47.2773H209.271V65.1074L224.246 47.2773ZM272.756 65.5723C272.756 71.571 271.217 76.2526 268.141 79.6172C265.064 82.9818 260.781 84.6641 255.291 84.6641C251.86 84.6641 248.827 83.8893 246.193 82.3398C243.559 80.7904 241.534 78.5658 240.117 75.666C238.701 72.7663 237.992 69.4017 237.992 65.5723C237.992 59.6178 239.52 54.9694 242.574 51.627C245.629 48.2845 249.934 46.6133 255.49 46.6133C260.803 46.6133 265.008 48.3288 268.107 51.7598C271.206 55.1686 272.756 59.7728 272.756 65.5723ZM246.027 65.5723C246.027 74.0501 249.16 78.2891 255.424 78.2891C261.622 78.2891 264.721 74.0501 264.721 65.5723C264.721 57.1829 261.6 52.9883 255.357 52.9883C252.081 52.9883 249.702 54.0729 248.219 56.2422C246.758 58.4115 246.027 61.5215 246.027 65.5723ZM289.557 47.2773V62.0195H306.855V47.2773H314.658V84H306.855V68.1621H289.557V84H281.754V47.2773H289.557ZM353.439 47.2773V53.3867H341.486V84H333.65V53.3867H321.697V47.2773H353.439ZM383.488 84L381.928 78.8867H381.662C379.891 81.1224 378.109 82.6497 376.316 83.4688C374.523 84.2656 372.221 84.6641 369.41 84.6641C365.802 84.6641 362.98 83.6901 360.943 81.7422C358.929 79.7943 357.922 77.0384 357.922 73.4746C357.922 69.6895 359.327 66.834 362.139 64.9082C364.95 62.9824 369.233 61.931 374.988 61.7539L381.33 61.5547V59.5957C381.33 57.2493 380.777 55.5007 379.67 54.3496C378.585 53.1764 376.892 52.5898 374.59 52.5898C372.708 52.5898 370.904 52.8665 369.178 53.4199C367.451 53.9733 365.791 54.6263 364.197 55.3789L361.674 49.8008C363.666 48.7604 365.846 47.9746 368.215 47.4434C370.583 46.89 372.819 46.6133 374.922 46.6133C379.592 46.6133 383.112 47.6315 385.48 49.668C387.871 51.7044 389.066 54.903 389.066 59.2637V84H383.488ZM371.867 78.6875C374.701 78.6875 376.969 77.9017 378.674 76.3301C380.4 74.7363 381.264 72.5117 381.264 69.6562V66.4688L376.549 66.668C372.874 66.8008 370.196 67.4206 368.514 68.5273C366.854 69.612 366.023 71.2832 366.023 73.541C366.023 75.179 366.51 76.4518 367.484 77.3594C368.458 78.2448 369.919 78.6875 371.867 78.6875ZM422.734 47.2773H431.301L416.127 64.9746L432.596 84H423.631L407.76 65.373V84H399.957V47.2773H407.76V65.1074L422.734 47.2773ZM466.264 47.2773V53.3867H454.311V84H446.475V53.3867H434.521V47.2773H466.264ZM489.373 84.6641C483.662 84.6641 479.191 83.0039 475.959 79.6836C472.749 76.3411 471.145 71.748 471.145 65.9043C471.145 59.9056 472.639 55.1908 475.627 51.7598C478.615 48.3288 482.721 46.6133 487.945 46.6133C492.793 46.6133 496.622 48.0853 499.434 51.0293C502.245 53.9733 503.65 58.0241 503.65 63.1816V67.3984H479.18C479.29 70.9622 480.253 73.707 482.068 75.6328C483.883 77.5365 486.44 78.4883 489.738 78.4883C491.908 78.4883 493.922 78.2891 495.781 77.8906C497.663 77.4701 499.677 76.7839 501.824 75.832V82.1738C499.921 83.0814 497.995 83.7233 496.047 84.0996C494.099 84.4759 491.874 84.6641 489.373 84.6641ZM487.945 52.5234C485.466 52.5234 483.474 53.3092 481.969 54.8809C480.486 56.4525 479.6 58.7435 479.312 61.7539H495.98C495.936 58.7214 495.206 56.4303 493.789 54.8809C492.372 53.3092 490.424 52.5234 487.945 52.5234Z" fill="white" fill-opacity="0.9"/>
<defs>
<filter id="filter0_b" x="-35" y="-21" width="612" height="162" filterUnits="userSpaceOnUse" color-interpolation-filters="sRGB">
<feFlood flood-opacity="0" result="BackgroundImageFix"/>
<feGaussianBlur in="BackgroundImage" stdDeviation="17.5"/>
<feComposite in2="SourceAlpha" operator="in" result="effect1_backgroundBlur"/>
<feBlend mode="normal" in="SourceGraphic" in2="effect1_backgroundBlur" result="shape"/>
</filter>
</defs>
</svg>
