<svg width="540" height="102" viewBox="0 0 540 102" fill="none" xmlns="http://www.w3.org/2000/svg">
<rect y="7" width="540" height="95" rx="30" fill="url(#paint0_linear)"/>
<path d="M41.6682 54.5C41.6682 49.0694 46.0694 44.6659 51.5 44.6659C56.9306 44.6659 61.3341 49.0694 61.3341 54.5C61.3341 59.9306 56.9306 64.3341 51.5 64.3341C46.0694 64.3341 41.6682 59.9306 41.6682 54.5ZM36.3521 54.5C36.3521 62.8662 43.1338 69.6479 51.5 69.6479C59.8662 69.6479 66.6479 62.8662 66.6479 54.5C66.6479 46.1338 59.8662 39.3521 51.5 39.3521C43.1338 39.3521 36.3521 46.1338 36.3521 54.5ZM63.7075 38.7515C63.7073 39.4516 63.9146 40.1361 64.3034 40.7184C64.6922 41.3008 65.2448 41.7547 65.8915 42.0229C66.5383 42.2911 67.25 42.3615 67.9368 42.2251C68.6236 42.0888 69.2545 41.7519 69.7497 41.2571C70.2451 40.7622 70.5824 40.1316 70.7192 39.4449C70.8561 38.7583 70.7863 38.0465 70.5186 37.3995C70.251 36.7525 69.7975 36.1995 69.2155 35.8103C68.6334 35.4211 67.9492 35.2132 67.2491 35.2129H67.2475C66.309 35.2133 65.409 35.5863 64.7453 36.2497C64.0816 36.9132 63.7085 37.813 63.7075 38.7515ZM39.582 78.5122C36.7059 78.3812 35.1426 77.9022 34.1037 77.4974C32.7264 76.9613 31.7437 76.3227 30.7105 75.2908C29.6773 74.2591 29.0378 73.2773 28.5039 71.9001C28.0989 70.8617 27.6199 69.298 27.4891 66.4217C27.3461 63.3122 27.3176 62.3781 27.3176 54.5002C27.3176 46.6223 27.3485 45.6909 27.4891 42.5787C27.6201 39.7026 28.1027 38.1419 28.5039 37.1004C29.0401 35.7231 29.6787 34.7404 30.7105 33.7072C31.7423 32.674 32.7241 32.0345 34.1037 31.5006C35.1421 31.0956 36.7059 30.6166 39.582 30.4858C42.6915 30.3428 43.6257 30.3142 51.5 30.3142C59.3743 30.3142 60.3095 30.3452 63.4215 30.4858C66.2976 30.6168 67.8583 31.0994 68.8999 31.5006C70.2771 32.0345 71.2599 32.6754 72.293 33.7072C73.3263 34.739 73.9635 35.7231 74.4996 37.1004C74.9045 38.1388 75.3836 39.7026 75.5144 42.5787C75.6573 45.6909 75.6861 46.6223 75.6861 54.5002C75.6861 62.3781 75.6573 63.3097 75.5144 66.4217C75.3834 69.298 74.902 70.8611 74.4996 71.9001C73.9635 73.2773 73.3249 74.2601 72.293 75.2908C71.2613 76.3217 70.2771 76.9613 68.8999 77.4974C67.8615 77.9025 66.2976 78.3816 63.4215 78.5122C60.312 78.6554 59.3779 78.6839 51.5 78.6839C43.6221 78.6839 42.6905 78.6554 39.582 78.5122ZM39.3377 25.1787C36.1973 25.3217 34.0513 25.8196 32.1773 26.5489C30.2364 27.3019 28.5934 28.3123 26.9515 29.9515C25.3097 31.5908 24.3019 33.2364 23.5489 35.1773C22.8196 37.0525 22.3217 39.1973 22.1787 42.3377C22.0333 45.4832 22 46.4888 22 54.5C22 62.5112 22.0333 63.5168 22.1787 66.6623C22.3217 69.803 22.8196 71.9475 23.5489 73.8227C24.3019 75.7624 25.3099 77.4099 26.9515 79.0485C28.5931 80.687 30.2364 81.6959 32.1773 82.4511C34.0549 83.1803 36.1973 83.6783 39.3377 83.8214C42.4848 83.9644 43.4888 84 51.5 84C59.5112 84 60.5168 83.9668 63.6623 83.8214C66.803 83.6783 68.9475 83.1803 70.8227 82.4511C72.7624 81.6959 74.4066 80.6877 76.0485 79.0485C77.6903 77.4093 78.6959 75.7624 79.451 73.8227C80.1803 71.9475 80.6806 69.8026 80.8214 66.6623C80.9644 63.5144 80.9976 62.5112 80.9976 54.5C80.9976 46.4888 80.9644 45.4832 80.8214 42.3377C80.6783 39.1971 80.1803 37.0513 79.451 35.1773C78.6959 33.2376 77.6877 31.5934 76.0485 29.9515C74.4093 28.3097 72.7624 27.3019 70.8251 26.5489C68.9475 25.8196 66.8026 25.3193 63.6646 25.1787C60.5191 25.0356 59.5136 25 51.5024 25C43.4911 25 42.4848 25.0333 39.3377 25.1787Z" fill="white"/>
<path d="M121.408 28.457H128.68V53.6914C128.68 56.3255 128.613 58.9928 128.48 61.6934C128.348 64.3717 128.248 66.1868 128.182 67.1387H128.48L153.283 28.457H162.547V77H155.242V51.9648C155.242 48.1354 155.452 43.487 155.873 38.0195H155.607L130.705 77H121.408V28.457ZM182.236 40.2773V55.0195H199.535V40.2773H207.338V77H199.535V61.1621H182.236V77H174.434V40.2773H182.236ZM233.336 77.6641C227.78 77.6641 223.552 76.0482 220.652 72.8164C217.775 69.5625 216.336 64.903 216.336 58.8379C216.336 52.6621 217.841 47.9141 220.852 44.5938C223.884 41.2734 228.256 39.6133 233.967 39.6133C237.84 39.6133 241.327 40.3327 244.426 41.7715L242.068 48.0469C238.77 46.763 236.048 46.1211 233.9 46.1211C227.548 46.1211 224.371 50.3379 224.371 58.7715C224.371 62.8887 225.157 65.9876 226.729 68.0684C228.322 70.127 230.646 71.1562 233.701 71.1562C237.176 71.1562 240.464 70.293 243.562 68.5664V75.373C242.168 76.1921 240.674 76.7786 239.08 77.1328C237.508 77.487 235.594 77.6641 233.336 77.6641ZM279.787 40.2773V46.3867H267.834V77H259.998V46.3867H248.045V40.2773H279.787ZM309.836 77L308.275 71.8867H308.01C306.239 74.1224 304.457 75.6497 302.664 76.4688C300.871 77.2656 298.569 77.6641 295.758 77.6641C292.15 77.6641 289.327 76.6901 287.291 74.7422C285.277 72.7943 284.27 70.0384 284.27 66.4746C284.27 62.6895 285.675 59.834 288.486 57.9082C291.298 55.9824 295.581 54.931 301.336 54.7539L307.678 54.5547V52.5957C307.678 50.2493 307.124 48.5007 306.018 47.3496C304.933 46.1764 303.24 45.5898 300.938 45.5898C299.056 45.5898 297.252 45.8665 295.525 46.4199C293.799 46.9733 292.139 47.6263 290.545 48.3789L288.021 42.8008C290.014 41.7604 292.194 40.9746 294.562 40.4434C296.931 39.89 299.167 39.6133 301.27 39.6133C305.94 39.6133 309.46 40.6315 311.828 42.668C314.219 44.7044 315.414 47.903 315.414 52.2637V77H309.836ZM298.215 71.6875C301.048 71.6875 303.317 70.9017 305.021 69.3301C306.748 67.7363 307.611 65.5117 307.611 62.6562V59.4688L302.896 59.668C299.222 59.8008 296.544 60.4206 294.861 61.5273C293.201 62.612 292.371 64.2832 292.371 66.541C292.371 68.179 292.858 69.4518 293.832 70.3594C294.806 71.2448 296.267 71.6875 298.215 71.6875ZM350.045 40.2773V46.3867H334.107V77H326.305V40.2773H350.045ZM375.744 77.6641C371.096 77.6641 367.488 75.9928 364.92 72.6504H364.455C364.765 75.7493 364.92 77.6309 364.92 78.2949V93.3359H357.117V40.2773H363.426C363.603 40.9635 363.968 42.6016 364.521 45.1914H364.92C367.355 41.4727 371.007 39.6133 375.877 39.6133C380.459 39.6133 384.023 41.2734 386.568 44.5938C389.136 47.9141 390.42 52.5736 390.42 58.5723C390.42 64.571 389.114 69.2526 386.502 72.6172C383.912 75.9818 380.326 77.6641 375.744 77.6641ZM373.852 45.9883C370.753 45.9883 368.484 46.8958 367.045 48.7109C365.628 50.526 364.92 53.4258 364.92 57.4102V58.5723C364.92 63.0436 365.628 66.2865 367.045 68.3008C368.462 70.293 370.775 71.2891 373.984 71.2891C376.685 71.2891 378.766 70.1823 380.227 67.9688C381.688 65.7552 382.418 62.6009 382.418 58.5059C382.418 54.3887 381.688 51.2786 380.227 49.1758C378.788 47.0508 376.663 45.9883 373.852 45.9883ZM422.461 77L420.9 71.8867H420.635C418.864 74.1224 417.082 75.6497 415.289 76.4688C413.496 77.2656 411.194 77.6641 408.383 77.6641C404.775 77.6641 401.952 76.6901 399.916 74.7422C397.902 72.7943 396.895 70.0384 396.895 66.4746C396.895 62.6895 398.3 59.834 401.111 57.9082C403.923 55.9824 408.206 54.931 413.961 54.7539L420.303 54.5547V52.5957C420.303 50.2493 419.749 48.5007 418.643 47.3496C417.558 46.1764 415.865 45.5898 413.562 45.5898C411.681 45.5898 409.877 45.8665 408.15 46.4199C406.424 46.9733 404.764 47.6263 403.17 48.3789L400.646 42.8008C402.639 41.7604 404.819 40.9746 407.188 40.4434C409.556 39.89 411.792 39.6133 413.895 39.6133C418.565 39.6133 422.085 40.6315 424.453 42.668C426.844 44.7044 428.039 47.903 428.039 52.2637V77H422.461ZM410.84 71.6875C413.673 71.6875 415.942 70.9017 417.646 69.3301C419.373 67.7363 420.236 65.5117 420.236 62.6562V59.4688L415.521 59.668C411.847 59.8008 409.169 60.4206 407.486 61.5273C405.826 62.612 404.996 64.2832 404.996 66.541C404.996 68.179 405.483 69.4518 406.457 70.3594C407.431 71.2448 408.892 71.6875 410.84 71.6875ZM460.014 69.5293L460.445 67.9355C461.353 64.6374 462.139 62.1029 462.803 60.332L471.037 40.2773H481.43V77H474.225V47.3496L473.627 49.3418C472.631 52.9056 471.79 55.5286 471.104 57.2109L463.068 77H457.158L449.123 57.0781C448.016 54.2005 446.998 50.9577 446.068 47.3496V77H438.93V40.2773H449.256L457.225 59.7344C457.933 61.5273 458.863 64.7923 460.014 69.5293Z" fill="white"/>
<defs>
<linearGradient id="paint0_linear" x1="151.314" y1="-54" x2="1071.36" y2="576.179" gradientUnits="userSpaceOnUse">
<stop stop-color="#982C9A"/>
<stop offset="1" stop-color="#E1F30E" stop-opacity="0"/>
</linearGradient>
</defs>
</svg>
